<svg width="350" height="384" viewBox="0 0 350 384" fill="none" xmlns="http://www.w3.org/2000/svg">
<path d="M251.773 250.538C251.773 250.538 250.923 329.896 226.438 342.893C217.098 351.964 215.127 373.215 209.029 376.879C202.931 380.542 155.103 379.457 159.092 375.253C167.202 366.702 161.859 311.822 161.859 311.822L154.027 289.358L251.773 250.538Z" fill="#BD9665"/>
<path d="M251.773 250.538C251.773 250.538 250.923 329.896 226.438 342.893C217.098 351.964 215.127 373.215 209.029 376.879C202.931 380.542 155.103 379.457 159.092 375.253C167.202 366.702 161.859 311.822 161.859 311.822L154.027 289.358L251.773 250.538Z" stroke="#8C6239" stroke-width="5" stroke-miterlimit="10"/>
<path d="M86.2826 266.453C86.2826 266.453 49.568 334.401 32.1647 343.818C25.9088 347.203 47.909 373.136 53.5296 371.744C74.0737 366.659 156.385 314.692 156.385 314.692L165.94 292.795L86.2826 266.453Z" fill="#BD9665"/>
<path d="M86.2826 266.453C86.2826 266.453 49.568 334.401 32.1647 343.818C25.9087 347.203 47.909 373.136 53.5296 371.744C74.0737 366.659 156.385 314.692 156.385 314.692L165.94 292.795L86.2826 266.453Z" stroke="#8C6239" stroke-width="5" stroke-miterlimit="10"/>
<path d="M73.7581 222.489C50.2617 290.887 80.7865 319.261 150.494 324.141C211.095 328.384 254.112 316.363 252.456 234.382C249.718 98.8812 243.989 103.516 197.426 100.04C136.846 95.5173 124.848 73.7651 73.7581 222.489Z" fill="#BD9665"/>
<path d="M73.7581 222.489C50.2617 290.887 80.7864 319.261 150.494 324.141C211.095 328.384 254.112 316.363 252.456 234.382C249.718 98.8812 243.989 103.516 197.426 100.04C136.846 95.5173 124.848 73.7651 73.7581 222.489Z" stroke="#8C6239" stroke-width="5" stroke-miterlimit="10"/>
<path d="M286.918 115.067C286.918 115.067 313.427 91.4755 310.272 98.6563C309.286 100.9 309.852 102.402 310.548 103.023C311.545 103.914 315.182 101.745 316.124 102.597C317.495 103.835 314.511 106.771 316.323 108.173C317.877 109.375 320.461 107.001 321.724 107.747C323.253 108.65 320.572 112.404 322.256 113.946C323.886 115.439 326.033 111.847 328.063 113.25C330.091 114.654 327.212 117.244 326.39 118.43C325.669 119.472 314.413 133.612 311.96 137.472C309.506 141.332 286.918 115.067 286.918 115.067Z" fill="#8C6239"/>
<path d="M286.918 115.067C286.918 115.067 313.427 91.4755 310.272 98.6563C309.286 100.9 309.852 102.402 310.548 103.023C311.545 103.914 315.182 101.745 316.124 102.597C317.495 103.835 314.511 106.771 316.323 108.173C317.877 109.375 320.461 107.001 321.724 107.747C323.253 108.65 320.572 112.404 322.256 113.946C323.886 115.439 326.033 111.847 328.063 113.25C330.091 114.654 327.212 117.244 326.39 118.43C325.669 119.472 314.413 133.612 311.96 137.472C309.506 141.332 286.918 115.067 286.918 115.067Z" stroke="#8C6239" stroke-width="8" stroke-miterlimit="10"/>
<path d="M231.55 135.766C231.55 135.766 247.357 132.626 267.139 122.817C285.276 113.823 298.317 97.2533 311.894 105.03C330.807 115.863 321.279 134.144 311.313 145.409C292.594 166.569 242.65 187.281 242.65 187.281" fill="#BD9665"/>
<path d="M231.55 135.766C231.55 135.766 247.357 132.626 267.139 122.817C285.276 113.823 298.317 97.2533 311.894 105.03C330.807 115.863 321.279 134.144 311.313 145.409C292.594 166.569 242.65 187.281 242.65 187.281" stroke="#8C6239" stroke-width="5" stroke-miterlimit="10"/>
<path d="M42.1696 158.459C42.1696 158.459 6.99107 154.659 13.6908 158.678C15.785 159.934 16.186 161.489 15.9755 162.4C15.674 163.708 11.462 164.057 11.1824 165.301C10.776 167.11 14.8965 167.766 14.2243 169.965C13.6093 171.975 10.2356 171.287 9.57411 172.764C8.84601 174.391 13.1902 175.891 12.7036 178.13C12.2314 180.297 8.41539 178.618 7.56727 180.945C6.71863 183.272 10.5567 183.707 11.9074 184.195C13.0951 184.625 30.401 189.601 34.6202 191.32C38.84 193.039 42.1696 158.459 42.1696 158.459Z" fill="#8C6239"/>
<path d="M42.1696 158.459C42.1696 158.459 6.99107 154.659 13.6908 158.678C15.785 159.934 16.186 161.489 15.9755 162.4C15.674 163.708 11.462 164.057 11.1824 165.301C10.776 167.11 14.8965 167.766 14.2243 169.965C13.6093 171.975 10.2356 171.287 9.57411 172.764C8.84601 174.391 13.1902 175.891 12.7036 178.13C12.2314 180.297 8.41539 178.618 7.56727 180.945C6.71863 183.272 10.5567 183.707 11.9074 184.195C13.0951 184.625 30.401 189.601 34.6202 191.32C38.84 193.039 42.1696 158.459 42.1696 158.459Z" stroke="#8C6239" stroke-width="8" stroke-miterlimit="10"/>
<path d="M116.263 126.689C116.263 126.689 74.2795 153.722 52.2885 155.238C32.8322 156.579 16.6074 153.212 14.8295 161.329C10.1543 182.677 11.5596 185.536 17.9654 189.753C25.6652 194.821 72.1553 204.9 93.2743 192.011" fill="#BD9665"/>
<path d="M116.263 126.689C116.263 126.689 74.2795 153.722 52.2885 155.238C32.8322 156.579 16.6074 153.212 14.8295 161.329C10.1543 182.677 11.5596 185.536 17.9654 189.753C25.6652 194.821 72.1553 204.9 93.2743 192.011" stroke="#8C6239" stroke-width="5" stroke-miterlimit="10"/>
<path d="M211.628 77.5142C212.462 80.9806 218.199 82.5483 224.443 81.0153C230.686 79.4822 235.071 75.4293 234.236 71.9629C233.402 68.496 227.664 66.9287 221.421 68.4618C215.178 69.9949 210.793 74.0478 211.628 77.5142Z" fill="#D27B61"/>
<path d="M97.4336 71.7261C96.8545 75.2527 101.521 78.9214 107.857 79.9197C114.192 80.918 119.798 78.8684 120.377 75.3418C120.956 71.8157 116.289 68.147 109.954 67.1487C103.618 66.1499 98.0126 68.1994 97.4336 71.7261Z" fill="#D27B61"/>
<path d="M101.629 38.6033C101.629 38.6033 88.7799 14.7458 95.2162 6.55725C104.064 -4.7004 130.239 17.1072 130.239 17.1072" fill="#BD9665"/>
<path d="M101.629 38.6033C101.629 38.6033 88.7799 14.7458 95.2162 6.55725C104.064 -4.7004 130.239 17.1072 130.239 17.1072" stroke="#8C6239" stroke-width="5" stroke-miterlimit="10"/>
<path d="M87.1841 87.1989C68.3518 134.332 126.142 152.271 171.831 153.759C216.712 155.22 256.613 143.429 251.204 90.2146C246.104 40.0383 243.982 40.511 245.566 31.3353C247.336 21.0815 235.441 18.584 228.361 15.7152C207.119 7.10852 197.945 5.95393 177.6 5.3113C157.509 4.67645 141.449 8.91189 125.806 9.72532C97.4628 11.1983 100.829 53.0467 87.1841 87.1989Z" fill="#BD9665"/>
<path d="M87.1841 87.1989C68.3519 134.332 126.142 152.271 171.831 153.759C216.712 155.22 256.613 143.429 251.204 90.2146C246.104 40.0383 243.982 40.511 245.566 31.3353C247.336 21.0815 235.441 18.5841 228.361 15.7152C207.119 7.10852 197.945 5.95392 177.6 5.3113C157.509 4.67646 141.449 8.91189 125.806 9.72532C97.4628 11.1983 100.829 53.0467 87.1841 87.1989Z" stroke="#8C6239" stroke-width="5" stroke-miterlimit="10"/>
<path d="M241.883 43.127C241.883 43.127 256.551 20.1655 250.767 11.5791C242.815 -0.225643 215.057 18.6741 215.057 18.6741" fill="#BD9665"/>
<path d="M241.883 43.127C241.883 43.127 256.551 20.1655 250.767 11.5791C242.815 -0.225644 215.057 18.6741 215.057 18.6741" stroke="#8C6239" stroke-width="5" stroke-miterlimit="10"/>
<path d="M172.806 119.577C172.624 126.526 150.055 129.566 147.047 104.402C159.334 129.451 172.966 113.461 172.806 119.577Z" fill="#8C6239"/>
<path d="M172.806 119.577C172.624 126.526 150.055 129.566 147.047 104.402C159.334 129.451 172.966 113.461 172.806 119.577Z" stroke="#8C6239" stroke-miterlimit="10"/>
<path d="M124.923 113.884C123.852 120.983 145.259 128.541 152.971 103.107C136.776 125.387 125.493 110.108 124.923 113.884Z" fill="#8C6239"/>
<path d="M124.923 113.884C123.852 120.983 145.259 128.541 152.971 103.107C136.776 125.387 125.493 110.108 124.923 113.884Z" stroke="#8C6239" stroke-miterlimit="10"/>
<path d="M173.19 87.6779C173.633 77.7463 163.751 70.435 152.074 70.0019C140.06 69.5568 130.634 76.6471 130.317 86.2363C130.017 95.3486 135.422 110.126 150.362 112.076C165.302 114.027 172.774 97.0136 173.19 87.6779Z" fill="#8C6239"/>
<path d="M203.89 75.2335C202.296 76.1238 202.312 71.087 197.259 70.345C192.802 69.69 190.865 74.0933 188.707 73.1666C186.549 72.2399 191.832 65.8607 197.4 66.679C202.968 67.4969 206.427 73.8153 203.89 75.2335Z" fill="#BD9665"/>
<path d="M203.89 75.2335C202.296 76.1238 202.312 71.087 197.259 70.345C192.802 69.69 190.865 74.0933 188.707 73.1666C186.549 72.2399 191.832 65.8607 197.4 66.679C202.968 67.4969 206.427 73.8153 203.89 75.2335Z" stroke="#8C6239" stroke-width="5" stroke-miterlimit="10"/>
<path d="M123.786 68.3728C122.191 69.2636 122.208 64.2268 117.155 63.4843C112.697 62.8293 110.761 67.2325 108.603 66.3059C106.445 65.3792 111.728 58.9999 117.296 59.8183C122.864 60.6362 126.322 66.9551 123.786 68.3728Z" fill="#BD9665"/>
<path d="M123.786 68.3728C122.191 69.2636 122.208 64.2268 117.155 63.4843C112.697 62.8293 110.761 67.2325 108.603 66.3059C106.445 65.3792 111.728 58.9999 117.296 59.8183C122.864 60.6362 126.322 66.9551 123.786 68.3728Z" stroke="#8C6239" stroke-width="5" stroke-miterlimit="10"/>
<path d="M310.223 100.841L311.504 101.656V103.303V106.769C311.504 107.64 312.19 108.275 312.949 108.275C313.708 108.275 314.394 107.64 314.394 106.769V103.168V101.794L315.434 100.896C315.435 100.895 315.437 100.893 315.439 100.892L315.492 100.841L315.493 100.841L315.494 100.84L315.495 100.839L315.495 100.838L315.496 100.838L315.496 100.838L315.498 100.836L315.502 100.832C315.512 100.822 315.53 100.804 315.556 100.779C315.607 100.729 315.685 100.65 315.784 100.547L315.795 100.536L315.806 100.525L315.84 100.49C316.076 100.249 316.472 99.8457 316.959 99.423C317.483 98.9627 318.203 98.411 319.056 98.006C319.96 97.5727 321.002 97.323 322.082 97.4114C322.489 97.4409 322.845 97.506 323.066 97.5467L323.1 97.553C323.336 97.5962 323.442 97.6157 323.56 97.6289L323.577 97.6307L323.593 97.6326C323.889 97.6687 324.344 97.6889 325.04 97.6676C325.732 97.645 326.572 97.5895 327.513 97.4885L310.223 100.841ZM310.223 100.841L310.22 100.838L310.22 100.838L310.219 100.837L310.218 100.836L310.218 100.835L310.217 100.835L310.217 100.835L310.217 100.835L310.217 100.835M310.223 100.841L310.217 100.835M310.217 100.835L310.211 100.829C310.207 100.825 310.202 100.821 310.197 100.815C310.186 100.805 310.173 100.792 310.157 100.776C310.106 100.726 310.027 100.647 309.928 100.544L309.918 100.534L309.909 100.524L309.877 100.493C309.641 100.252 309.246 99.8506 308.761 99.4282C308.235 98.9647 307.518 98.4165 306.675 98.0106C305.791 97.5836 304.746 97.3132 303.645 97.4017C303.229 97.431 302.87 97.498 302.644 97.5406C302.619 97.5455 302.594 97.5501 302.572 97.5544C302.358 97.5948 302.263 97.6127 302.155 97.6255L302.139 97.6274L302.123 97.6294C301.843 97.6655 301.404 97.6871 300.722 97.6664C300.041 97.6445 299.212 97.5892 298.278 97.4882L310.217 100.835ZM306.486 92.5633L311.504 97.2081V90.3434V71.2618C311.504 70.3901 312.19 69.7549 312.949 69.7549C313.708 69.7549 314.394 70.3902 314.394 71.2618V90.2255V96.7726L319.353 92.4977C320.337 91.6494 321.443 90.9851 322.561 90.4727C323.722 89.9419 324.88 89.5705 326.03 89.2899C327.172 89.016 328.283 88.8426 329.358 88.7294L329.37 88.7281C330.445 88.6104 331.483 88.5529 332.474 88.5233C333.398 88.4987 334.322 88.4992 335.245 88.5248L335.254 88.525C336.087 88.5456 336.92 88.5731 337.753 88.6076L337.761 88.6079L337.769 88.6082C338.585 88.6377 339.409 88.6562 340.239 88.6298L306.486 92.5633ZM306.486 92.5633C305.495 91.6885 304.37 91.005 303.228 90.4786C302.071 89.9455 300.916 89.5726 299.771 89.2915C298.632 89.0168 297.527 88.8431 296.458 88.7298L296.445 88.7285L296.445 88.7284C295.376 88.6106 294.344 88.5528 293.359 88.523C292.443 88.4982 291.526 88.4985 290.61 88.5241L290.598 88.5244C289.711 88.5459 288.901 88.5745 288.119 88.6068L288.11 88.6072L288.101 88.6075C287.295 88.636 286.472 88.6551 285.643 88.6281C285.642 88.6281 285.642 88.6281 285.641 88.6281L306.486 92.5633ZM279.791 84.8242C279.789 84.8237 279.787 84.8232 279.785 84.8227M279.791 84.8242L279.785 84.8227M279.791 84.8242L279.785 84.8227M279.791 84.8242L279.785 84.8227M279.293 84.4288L279.777 84.8132L279.293 84.4288ZM279.293 84.4288C279.239 84.4973 279.199 84.5766 279.177 84.6616L279.741 84.1944C279.654 84.1998 279.57 84.2234 279.493 84.2637C279.416 84.3041 279.348 84.3603 279.293 84.4288ZM345.902 84.2324L346.12 84.807L346.12 84.8077L346.121 84.8113L346.124 84.8178L346.124 84.818L345.902 84.2324ZM345.902 84.2324C345.902 84.2324 345.714 84.3038 345.389 84.4526L346.405 84.2628C346.328 84.2224 346.243 84.1988 346.157 84.1936C346.07 84.1884 345.983 84.2016 345.902 84.2324ZM346.113 84.8208C346.111 84.8213 346.109 84.8218 346.107 84.8223L346.113 84.8208ZM346.113 84.8208C346.115 84.8203 346.117 84.8198 346.119 84.8193L346.113 84.8208ZM343.663 88.1778C343.376 88.247 343.087 88.3088 342.796 88.363L342.796 88.363C341.956 88.5195 341.096 88.6029 340.241 88.6298L343.663 88.1778ZM343.663 88.1778C343.64 88.2563 343.615 88.337 343.587 88.4199C343.367 89.0845 342.99 89.8622 342.432 90.6413L342.428 90.6468C341.866 91.4338 341.115 92.2342 340.235 92.945L340.232 92.9468C339.344 93.6659 338.322 94.3106 337.259 94.8403L337.249 94.8451L337.239 94.85C336.174 95.3903 335.048 95.8261 333.911 96.1846C332.777 96.5412 331.655 96.8103 330.564 97.0228L330.56 97.0237C330.01 97.1315 329.488 97.2225 328.984 97.2972L328.974 97.2986C328.469 97.3751 327.976 97.4386 327.513 97.4885L343.663 88.1778ZM315.502 100.839L315.501 100.84C315.503 100.838 315.504 100.837 315.502 100.839ZM282.222 88.1725C282.51 88.2423 282.8 88.3045 283.092 88.3591L298.277 97.4881C297.817 97.438 297.327 97.3745 296.824 97.2979L296.819 97.2971C296.294 97.218 295.772 97.1267 295.251 97.0232L295.244 97.0217C294.157 96.8087 293.041 96.5394 291.911 96.182C290.779 95.8232 289.657 95.3861 288.596 94.845L288.588 94.8405L288.579 94.836C287.517 94.3035 286.501 93.6581 285.619 92.9388L285.619 92.9388C284.741 92.2239 283.996 91.424 283.441 90.6388L283.437 90.6334C282.885 89.8554 282.514 89.0802 282.297 88.4177C282.27 88.3337 282.245 88.252 282.222 88.1725ZM332.39 85.5245C331.344 85.5556 330.222 85.6169 329.044 85.7459L332.39 85.5245ZM340.145 85.6313C339.417 85.6545 338.672 85.6388 337.877 85.6102L342.246 85.4138C341.578 85.5383 340.871 85.6085 340.145 85.6313ZM346.124 84.8179L346.721 84.6612C346.507 84.7175 346.308 84.7696 346.124 84.8179Z" fill="#CCEE85" stroke="#ADD950" stroke-width="6"/>
<mask id="path-33-inside-1_136_98" fill="white">
<path d="M348.758 43.5575C348.758 43.5575 348.479 43.3249 347.954 42.9496C347.638 42.7194 347.316 42.4974 346.988 42.284C346.559 41.9947 346.123 41.7162 345.681 41.4486C344.849 40.9416 343.865 40.3854 342.751 39.8136C343.54 38.8331 344.218 37.9195 344.775 37.114C345.073 36.6875 345.36 36.2537 345.636 35.8128C345.85 35.483 346.055 35.1476 346.253 34.8071C346.582 34.2482 346.744 33.9206 346.744 33.9206C346.839 33.727 346.926 33.505 346.984 33.2889C347.483 31.4571 346.422 29.5626 344.616 29.0571C344.616 29.0571 344.267 28.9596 343.637 28.8322C343.256 28.7518 342.873 28.6814 342.488 28.6212C341.98 28.5331 341.471 28.4578 340.959 28.3953C340.325 28.3155 339.62 28.2437 338.858 28.1853C339.061 27.502 339.249 26.8139 339.42 26.1215C339.546 25.6152 339.66 25.1058 339.762 24.5938C339.844 24.2079 339.917 23.82 339.981 23.4303C340.09 22.7889 340.125 22.4238 340.125 22.4238C340.145 22.2087 340.147 21.9699 340.125 21.7469C339.941 19.8559 338.28 18.4745 336.415 18.6615C336.415 18.6615 336.055 18.6975 335.422 18.8084C335.038 18.8724 334.655 18.9464 334.275 19.0305C333.827 19.1218 333.321 19.235 332.768 19.3768C331.826 19.6147 330.742 19.9275 329.556 20.3215C329.43 19.0626 329.272 17.9309 329.105 16.9616C329.008 16.392 328.905 15.8765 328.806 15.4247C328.727 15.038 328.639 14.6534 328.541 14.2714C328.384 13.6401 328.27 13.2919 328.27 13.2919C328.199 13.0777 328.108 12.8706 327.999 12.6733C327.074 11.0208 325.003 10.4414 323.374 11.3794C323.374 11.3794 323.059 11.5605 322.525 11.9219C322.199 12.1384 321.879 12.3634 321.565 12.5967C321.145 12.8985 320.732 13.2107 320.327 13.5331C319.772 13.9726 319.228 14.4254 318.694 14.8911C318.362 14.262 318.014 13.6411 317.653 13.0288C317.389 12.5803 317.114 12.1384 316.829 11.7035C316.618 11.3713 316.399 11.0447 316.172 10.7241C315.802 10.1921 315.573 9.90839 315.573 9.90839C315.43 9.73438 315.272 9.57414 315.101 9.42974C313.652 8.22477 311.514 8.43906 310.325 9.90839C310.325 9.90839 310.096 10.1921 309.726 10.7241C309.499 11.0448 309.28 11.3714 309.069 11.7035C308.784 12.1384 308.509 12.5803 308.245 13.0288C307.745 13.8729 307.196 14.8724 306.632 16.0025C305.664 15.2019 304.763 14.5142 303.969 13.9484C303.548 13.647 303.121 13.3559 302.686 13.0756C302.361 12.8584 302.031 12.6498 301.695 12.45C301.144 12.1159 300.821 11.951 300.821 11.951C300.621 11.8499 300.411 11.768 300.195 11.7064C298.389 11.2023 296.522 12.278 296.025 14.1092C296.025 14.1092 295.929 14.4627 295.804 15.1009C295.74 15.4206 295.663 15.814 295.596 16.266C295.51 16.7807 295.436 17.2975 295.374 17.8159C295.288 18.5255 295.219 19.2371 295.167 19.9501C294.492 19.7431 293.813 19.5525 293.129 19.3785C292.629 19.2503 292.127 19.1346 291.622 19.0315C291.242 18.9474 290.86 18.8732 290.476 18.809C289.843 18.6979 289.483 18.6617 289.483 18.6617C289.26 18.6404 289.035 18.6404 288.812 18.6617C286.948 18.8495 285.587 20.534 285.773 22.424C285.773 22.424 285.809 22.7889 285.918 23.4301C285.972 23.7517 286.04 24.1467 286.138 24.593C286.228 25.0468 286.34 25.5602 286.48 26.1203C286.715 27.0764 287.024 28.1769 287.414 29.3813C286.17 29.5087 285.053 29.6687 284.096 29.8384C283.534 29.9359 283.026 30.0405 282.58 30.1408C282.138 30.2314 281.755 30.3286 281.443 30.4092C280.821 30.5678 280.477 30.6827 280.477 30.6827C280.265 30.7552 280.059 30.8476 279.864 30.9587C278.235 31.8971 277.665 33.9965 278.591 35.648C278.591 35.648 278.769 35.9668 279.126 36.5078C279.34 36.8378 279.562 37.1622 279.792 37.4805C280.089 37.9066 280.397 38.3251 280.715 38.7358C281.109 39.2476 281.558 39.8046 282.058 40.3932C281.436 40.7308 280.822 41.0834 280.217 41.4506C279.775 41.718 279.339 41.9962 278.91 42.2852C278.583 42.4984 278.261 42.7202 277.944 42.9502C277.42 43.3251 277.14 43.5575 277.14 43.5575C276.967 43.7026 276.809 43.8637 276.665 44.0386C275.479 45.5079 275.691 47.6747 277.14 48.8782C277.14 48.8782 277.42 49.1106 277.944 49.4855C278.207 49.6744 278.53 49.9049 278.91 50.1506C279.339 50.4396 279.775 50.7179 280.217 50.9852C281.05 51.4925 282.037 52.0491 283.152 52.6214C282.362 53.6031 281.683 54.5175 281.124 55.3238C280.827 55.7501 280.54 56.1838 280.263 56.6244C280.049 56.9541 279.844 57.2893 279.646 57.6297C279.317 58.1881 279.154 58.5156 279.154 58.5156C279.055 58.7192 278.974 58.9317 278.913 59.1505C278.416 60.9817 279.477 62.8749 281.283 63.379C281.283 63.379 281.632 63.4763 282.261 63.6033C282.576 63.668 282.964 63.7458 283.41 63.8139C283.86 63.8917 284.373 63.9704 284.939 64.0392C285.638 64.1261 286.34 64.196 287.043 64.2488C286.839 64.9331 286.651 65.6223 286.48 66.3157C286.353 66.8218 286.239 67.3311 286.137 67.843C286.054 68.2286 285.981 68.6164 285.918 69.0058C285.809 69.6471 285.773 70.012 285.773 70.012C285.752 70.2383 285.752 70.466 285.773 70.6923C285.958 72.5823 287.619 73.9623 289.483 73.7745C289.483 73.7745 289.843 73.7382 290.476 73.6271C290.793 73.5726 291.182 73.5038 291.622 73.4047C292.07 73.3131 292.576 73.1997 293.129 73.0577C294.072 72.8192 295.157 72.5056 296.345 72.1106C296.47 73.3715 296.628 74.5049 296.795 75.4756C296.882 75.9902 296.982 76.5026 297.094 77.0123C297.183 77.4604 297.279 77.8493 297.358 78.1654C297.515 78.7964 297.628 79.1446 297.628 79.1446C297.7 79.3601 297.791 79.5683 297.9 79.7666C298.826 81.4178 300.896 81.9958 302.525 81.0574C302.525 81.0574 302.839 80.8763 303.373 80.5147C303.698 80.298 304.018 80.0729 304.332 79.8396C304.752 79.5378 305.165 79.2254 305.57 78.9029C306.126 78.4624 306.671 78.0086 307.205 77.5418C307.538 78.172 307.885 78.7941 308.247 79.4076C308.511 79.856 308.786 80.2979 309.071 80.7328C309.281 81.065 309.499 81.3916 309.726 81.7123C310.096 82.2443 310.325 82.5278 310.325 82.5278C310.468 82.7027 310.627 82.8638 310.8 83.0089C312.249 84.2124 314.386 83.9971 315.573 82.5278C315.573 82.5278 315.802 82.2441 316.172 81.7123C316.398 81.3916 316.617 81.065 316.827 80.7328C317.112 80.298 317.387 79.8561 317.651 79.4076C318.15 78.5636 318.699 77.5644 319.263 76.4347C320.231 77.2355 321.132 77.9232 321.927 78.4891C322.348 78.7906 322.776 79.0815 323.211 79.3616C323.536 79.5786 323.867 79.7872 324.203 79.987C324.754 80.3209 325.077 80.4858 325.077 80.4858C325.268 80.5816 325.487 80.6695 325.7 80.7292C327.506 81.2345 329.375 80.1591 329.873 78.3274C329.873 78.3274 329.969 77.9737 330.095 77.3353C330.159 77.0155 330.236 76.6221 330.303 76.1698C330.38 75.7133 330.458 75.1933 330.526 74.6196C330.604 73.9765 330.675 73.2616 330.733 72.4891C331.407 72.6954 332.085 72.8854 332.768 73.0589C333.32 73.2008 333.827 73.3139 334.274 73.4053C334.715 73.504 335.104 73.573 335.422 73.6271C336.054 73.7378 336.415 73.7741 336.415 73.7741C336.627 73.7938 336.862 73.796 337.082 73.7741C338.947 73.587 340.309 71.9026 340.125 70.0116C340.125 70.0116 340.089 69.6465 339.98 69.005C339.917 68.6154 339.844 68.2274 339.761 67.8416C339.66 67.3296 339.546 66.8202 339.419 66.3138C339.185 65.3588 338.876 64.2596 338.488 63.0571C339.729 62.9293 340.846 62.7693 341.802 62.5994C342.364 62.5017 342.872 62.3969 343.318 62.2962C343.76 62.2054 344.143 62.1079 344.455 62.0271C345.078 61.8682 345.421 61.753 345.421 61.753C345.632 61.6808 345.837 61.5889 346.031 61.4785C347.661 60.5405 348.232 58.4405 347.307 56.788C347.307 56.788 347.129 56.4689 346.772 55.9276C346.559 55.5973 346.337 55.2728 346.107 54.9542C345.809 54.528 345.501 54.1092 345.183 53.6983C344.75 53.1359 344.303 52.5841 343.844 52.0432C344.464 51.7059 345.076 51.3537 345.68 50.987C346.123 50.7195 346.558 50.4409 346.987 50.1516C347.315 49.9382 347.637 49.7163 347.953 49.4859C348.478 49.1106 348.758 48.878 348.758 48.878C348.929 48.7336 349.087 48.5734 349.23 48.3994C350.419 46.9303 350.208 44.7623 348.758 43.5575Z"/>
</mask>
<path d="M348.758 43.5575C348.758 43.5575 348.479 43.3249 347.954 42.9496C347.638 42.7194 347.316 42.4974 346.988 42.284C346.559 41.9947 346.123 41.7162 345.681 41.4486C344.849 40.9416 343.865 40.3854 342.751 39.8136C343.54 38.8331 344.218 37.9195 344.775 37.114C345.073 36.6875 345.36 36.2537 345.636 35.8128C345.85 35.483 346.055 35.1476 346.253 34.8071C346.582 34.2482 346.744 33.9206 346.744 33.9206C346.839 33.727 346.926 33.505 346.984 33.2889C347.483 31.4571 346.422 29.5626 344.616 29.0571C344.616 29.0571 344.267 28.9596 343.637 28.8322C343.256 28.7518 342.873 28.6814 342.488 28.6212C341.98 28.5331 341.471 28.4578 340.959 28.3953C340.325 28.3155 339.62 28.2437 338.858 28.1853C339.061 27.502 339.249 26.8139 339.42 26.1215C339.546 25.6152 339.66 25.1058 339.762 24.5938C339.844 24.2079 339.917 23.82 339.981 23.4303C340.09 22.7889 340.125 22.4238 340.125 22.4238C340.145 22.2087 340.147 21.9699 340.125 21.7469C339.941 19.8559 338.28 18.4745 336.415 18.6615C336.415 18.6615 336.055 18.6975 335.422 18.8084C335.038 18.8724 334.655 18.9464 334.275 19.0305C333.827 19.1218 333.321 19.235 332.768 19.3768C331.826 19.6147 330.742 19.9275 329.556 20.3215C329.43 19.0626 329.272 17.9309 329.105 16.9616C329.008 16.392 328.905 15.8765 328.806 15.4247C328.727 15.038 328.639 14.6534 328.541 14.2714C328.384 13.6401 328.27 13.2919 328.27 13.2919C328.199 13.0777 328.108 12.8706 327.999 12.6733C327.074 11.0208 325.003 10.4414 323.374 11.3794C323.374 11.3794 323.059 11.5605 322.525 11.9219C322.199 12.1384 321.879 12.3634 321.565 12.5967C321.145 12.8985 320.732 13.2107 320.327 13.5331C319.772 13.9726 319.228 14.4254 318.694 14.8911C318.362 14.262 318.014 13.6411 317.653 13.0288C317.389 12.5803 317.114 12.1384 316.829 11.7035C316.618 11.3713 316.399 11.0447 316.172 10.7241C315.802 10.1921 315.573 9.90839 315.573 9.90839C315.43 9.73438 315.272 9.57414 315.101 9.42974C313.652 8.22477 311.514 8.43906 310.325 9.90839C310.325 9.90839 310.096 10.1921 309.726 10.7241C309.499 11.0448 309.28 11.3714 309.069 11.7035C308.784 12.1384 308.509 12.5803 308.245 13.0288C307.745 13.8729 307.196 14.8724 306.632 16.0025C305.664 15.2019 304.763 14.5142 303.969 13.9484C303.548 13.647 303.121 13.3559 302.686 13.0756C302.361 12.8584 302.031 12.6498 301.695 12.45C301.144 12.1159 300.821 11.951 300.821 11.951C300.621 11.8499 300.411 11.768 300.195 11.7064C298.389 11.2023 296.522 12.278 296.025 14.1092C296.025 14.1092 295.929 14.4627 295.804 15.1009C295.74 15.4206 295.663 15.814 295.596 16.266C295.51 16.7807 295.436 17.2975 295.374 17.8159C295.288 18.5255 295.219 19.2371 295.167 19.9501C294.492 19.7431 293.813 19.5525 293.129 19.3785C292.629 19.2503 292.127 19.1346 291.622 19.0315C291.242 18.9474 290.86 18.8732 290.476 18.809C289.843 18.6979 289.483 18.6617 289.483 18.6617C289.26 18.6404 289.035 18.6404 288.812 18.6617C286.948 18.8495 285.587 20.534 285.773 22.424C285.773 22.424 285.809 22.7889 285.918 23.4301C285.972 23.7517 286.04 24.1467 286.138 24.593C286.228 25.0468 286.34 25.5602 286.48 26.1203C286.715 27.0764 287.024 28.1769 287.414 29.3813C286.17 29.5087 285.053 29.6687 284.096 29.8384C283.534 29.9359 283.026 30.0405 282.58 30.1408C282.138 30.2314 281.755 30.3286 281.443 30.4092C280.821 30.5678 280.477 30.6827 280.477 30.6827C280.265 30.7552 280.059 30.8476 279.864 30.9587C278.235 31.8971 277.665 33.9965 278.591 35.648C278.591 35.648 278.769 35.9668 279.126 36.5078C279.34 36.8378 279.562 37.1622 279.792 37.4805C280.089 37.9066 280.397 38.3251 280.715 38.7358C281.109 39.2476 281.558 39.8046 282.058 40.3932C281.436 40.7308 280.822 41.0834 280.217 41.4506C279.775 41.718 279.339 41.9962 278.91 42.2852C278.583 42.4984 278.261 42.7202 277.944 42.9502C277.42 43.3251 277.14 43.5575 277.14 43.5575C276.967 43.7026 276.809 43.8637 276.665 44.0386C275.479 45.5079 275.691 47.6747 277.14 48.8782C277.14 48.8782 277.42 49.1106 277.944 49.4855C278.207 49.6744 278.53 49.9049 278.91 50.1506C279.339 50.4396 279.775 50.7179 280.217 50.9852C281.05 51.4925 282.037 52.0491 283.152 52.6214C282.362 53.6031 281.683 54.5175 281.124 55.3238C280.827 55.7501 280.54 56.1838 280.263 56.6244C280.049 56.9541 279.844 57.2893 279.646 57.6297C279.317 58.1881 279.154 58.5156 279.154 58.5156C279.055 58.7192 278.974 58.9317 278.913 59.1505C278.416 60.9817 279.477 62.8749 281.283 63.379C281.283 63.379 281.632 63.4763 282.261 63.6033C282.576 63.668 282.964 63.7458 283.41 63.8139C283.86 63.8917 284.373 63.9704 284.939 64.0392C285.638 64.1261 286.34 64.196 287.043 64.2488C286.839 64.9331 286.651 65.6223 286.48 66.3157C286.353 66.8218 286.239 67.3311 286.137 67.843C286.054 68.2286 285.981 68.6164 285.918 69.0058C285.809 69.6471 285.773 70.012 285.773 70.012C285.752 70.2383 285.752 70.466 285.773 70.6923C285.958 72.5823 287.619 73.9623 289.483 73.7745C289.483 73.7745 289.843 73.7382 290.476 73.6271C290.793 73.5726 291.182 73.5038 291.622 73.4047C292.07 73.3131 292.576 73.1997 293.129 73.0577C294.072 72.8192 295.157 72.5056 296.345 72.1106C296.47 73.3715 296.628 74.5049 296.795 75.4756C296.882 75.9902 296.982 76.5026 297.094 77.0123C297.183 77.4604 297.279 77.8493 297.358 78.1654C297.515 78.7964 297.628 79.1446 297.628 79.1446C297.7 79.3601 297.791 79.5683 297.9 79.7666C298.826 81.4178 300.896 81.9958 302.525 81.0574C302.525 81.0574 302.839 80.8763 303.373 80.5147C303.698 80.298 304.018 80.0729 304.332 79.8396C304.752 79.5378 305.165 79.2254 305.57 78.9029C306.126 78.4624 306.671 78.0086 307.205 77.5418C307.538 78.172 307.885 78.7941 308.247 79.4076C308.511 79.856 308.786 80.2979 309.071 80.7328C309.281 81.065 309.499 81.3916 309.726 81.7123C310.096 82.2443 310.325 82.5278 310.325 82.5278C310.468 82.7027 310.627 82.8638 310.8 83.0089C312.249 84.2124 314.386 83.9971 315.573 82.5278C315.573 82.5278 315.802 82.2441 316.172 81.7123C316.398 81.3916 316.617 81.065 316.827 80.7328C317.112 80.298 317.387 79.8561 317.651 79.4076C318.15 78.5636 318.699 77.5644 319.263 76.4347C320.231 77.2355 321.132 77.9232 321.927 78.4891C322.348 78.7906 322.776 79.0815 323.211 79.3616C323.536 79.5786 323.867 79.7872 324.203 79.987C324.754 80.3209 325.077 80.4858 325.077 80.4858C325.268 80.5816 325.487 80.6695 325.7 80.7292C327.506 81.2345 329.375 80.1591 329.873 78.3274C329.873 78.3274 329.969 77.9737 330.095 77.3353C330.159 77.0155 330.236 76.6221 330.303 76.1698C330.38 75.7133 330.458 75.1933 330.526 74.6196C330.604 73.9765 330.675 73.2616 330.733 72.4891C331.407 72.6954 332.085 72.8854 332.768 73.0589C333.32 73.2008 333.827 73.3139 334.274 73.4053C334.715 73.504 335.104 73.573 335.422 73.6271C336.054 73.7378 336.415 73.7741 336.415 73.7741C336.627 73.7938 336.862 73.796 337.082 73.7741C338.947 73.587 340.309 71.9026 340.125 70.0116C340.125 70.0116 340.089 69.6465 339.98 69.005C339.917 68.6154 339.844 68.2274 339.761 67.8416C339.66 67.3296 339.546 66.8202 339.419 66.3138C339.185 65.3588 338.876 64.2596 338.488 63.0571C339.729 62.9293 340.846 62.7693 341.802 62.5994C342.364 62.5017 342.872 62.3969 343.318 62.2962C343.76 62.2054 344.143 62.1079 344.455 62.0271C345.078 61.8682 345.421 61.753 345.421 61.753C345.632 61.6808 345.837 61.5889 346.031 61.4785C347.661 60.5405 348.232 58.4405 347.307 56.788C347.307 56.788 347.129 56.4689 346.772 55.9276C346.559 55.5973 346.337 55.2728 346.107 54.9542C345.809 54.528 345.501 54.1092 345.183 53.6983C344.75 53.1359 344.303 52.5841 343.844 52.0432C344.464 51.7059 345.076 51.3537 345.68 50.987C346.123 50.7195 346.558 50.4409 346.987 50.1516C347.315 49.9382 347.637 49.7163 347.953 49.4859C348.478 49.1106 348.758 48.878 348.758 48.878C348.929 48.7336 349.087 48.5734 349.23 48.3994C350.419 46.9303 350.208 44.7623 348.758 43.5575Z" fill="#FEB14B" stroke="#E18E1F" stroke-width="12" mask="url(#path-33-inside-1_136_98)"/>
<path d="M328.952 46.2182C328.952 55.2428 321.748 62.4872 312.949 62.4872C304.149 62.4872 296.945 55.2428 296.945 46.2182C296.945 37.1937 304.149 29.9492 312.949 29.9492C321.748 29.9492 328.952 37.1937 328.952 46.2182Z" fill="#BD9665" stroke="#8C6239" stroke-width="6"/>
</svg>
